<svg width="19" height="18" viewBox="0 0 19 18" fill="none" xmlns="http://www.w3.org/2000/svg">
<path d="M4.8461 9.64106C5.20013 9.64106 5.48713 9.35406 5.48713 9.00003C5.48713 8.64601 5.20013 8.35901 4.8461 8.35901C4.49208 8.35901 4.20508 8.64601 4.20508 9.00003C4.20508 9.35406 4.49208 9.64106 4.8461 9.64106Z" stroke="white" stroke-linecap="round" stroke-linejoin="round"/>
<path d="M9.0131 9.64106C9.36712 9.64106 9.65412 9.35406 9.65412 9.00003C9.65412 8.64601 9.36712 8.35901 9.0131 8.35901C8.65907 8.35901 8.37207 8.64601 8.37207 9.00003C8.37207 9.35406 8.65907 9.64106 9.0131 9.64106Z" stroke="white" stroke-linecap="round" stroke-linejoin="round"/>
<path d="M13.1791 9.64106C13.5331 9.64106 13.8201 9.35406 13.8201 9.00003C13.8201 8.64601 13.5331 8.35901 13.1791 8.35901C12.8251 8.35901 12.5381 8.64601 12.5381 9.00003C12.5381 9.35406 12.8251 9.64106 13.1791 9.64106Z" stroke="white" stroke-linecap="round" stroke-linejoin="round"/>
<path d="M9.33333 0.666749C7.82595 0.667219 6.34692 1.07654 5.05377 1.85113C3.76062 2.62571 2.70179 3.73654 1.99004 5.06531C1.2783 6.39407 0.940296 7.89101 1.01204 9.39669C1.08378 10.9024 1.56258 12.3604 2.39744 13.6155L1 17.3334L5.67949 16.4873C6.80629 17.0379 8.04285 17.3271 9.29698 17.3333C10.5511 17.3395 11.7905 17.0626 12.9227 16.5231C14.0549 15.9837 15.0507 15.1956 15.836 14.2177C16.6212 13.2399 17.1756 12.0973 17.4578 10.8754C17.7401 9.65337 17.7428 8.38345 17.4659 7.16025C17.1891 5.93704 16.6396 4.79212 15.8587 3.81081C15.0777 2.8295 14.0853 2.03712 12.9555 1.49274C11.8256 0.948354 10.5875 0.666009 9.33333 0.666749Z" stroke="white" stroke-linecap="round" stroke-linejoin="round"/>
</svg>
