<svg width="17" height="21" viewBox="0 0 17 21" fill="none" xmlns="http://www.w3.org/2000/svg">
<path d="M14.875 16.25H16.5V17.35H0.5V16.25H2.125H2.625V15.75V8.4C2.625 7.05788 3.03111 5.87604 3.84658 4.83614C4.66182 3.79653 5.71575 3.11851 7.02595 2.79546L7.40625 2.70169V2.31V1.575C7.40625 1.27068 7.5082 1.02684 7.72308 0.814492C7.93815 0.601952 8.18709 0.499507 8.49921 0.500002H8.5C8.81333 0.500002 9.06288 0.602971 9.27798 0.815542C9.49283 1.02786 9.59424 1.27109 9.59375 1.57419V1.575V2.31V2.70151L9.97383 2.79541C11.2841 3.11913 12.3381 3.79753 13.1534 4.83719C13.9689 5.87714 14.375 7.05864 14.375 8.4V15.75V16.25H14.875ZM8.5 20.5C8.04751 20.5 7.67326 20.3463 7.35014 20.027C7.15763 19.8367 7.02559 19.6296 6.95046 19.4H10.0491C9.97371 19.6302 9.84144 19.8376 9.64879 20.028C9.32569 20.3473 8.95199 20.5005 8.5006 20.5H8.5Z" stroke="white"/>
</svg>
