<svg width="18" height="18" viewBox="0 0 18 18" fill="none" xmlns="http://www.w3.org/2000/svg">
<path d="M6.67528 15.0583L6.63836 14.7615L6.35938 14.6536C6.19234 14.5891 6.03633 14.5122 5.89074 14.4233C5.73093 14.3257 5.57489 14.2211 5.42261 14.1093L5.19379 13.9415L4.93236 14.0519L2.67533 15.005L0.652793 11.494L2.60878 10.0054L2.84229 9.82766L2.80099 9.53713C2.78911 9.45351 2.78358 9.37568 2.78358 9.3033V8.6967C2.78358 8.62432 2.78911 8.54649 2.80099 8.46287L2.84229 8.17234L2.60878 7.99462L0.652792 6.50598L2.67533 2.99504L4.93236 3.94812L5.19326 4.05829L5.42191 3.89117C5.57223 3.7813 5.72977 3.67801 5.89467 3.58134C6.05585 3.48684 6.21504 3.40702 6.37223 3.3412L6.63952 3.22927L6.67528 2.94171L6.97898 0.5H11.021L11.3247 2.94171L11.3616 3.23853L11.6406 3.34637C11.8077 3.41093 11.9637 3.48781 12.1093 3.57672C12.2691 3.67432 12.4251 3.77895 12.5774 3.89066L12.8062 4.05851L13.0676 3.94812L15.3247 2.99504L17.3472 6.50598L15.3912 7.99462L15.1577 8.17234L15.199 8.46287C15.2109 8.54649 15.2164 8.62432 15.2164 8.6967V9.3033C15.2164 9.34985 15.2094 9.40516 15.1907 9.47077L15.0974 9.79883L15.3688 10.0054L17.3248 11.494L15.303 15.0038L13.069 14.0525L12.8075 13.9411L12.5781 14.1088C12.4278 14.2187 12.2702 14.322 12.1053 14.4187C11.9441 14.5132 11.785 14.593 11.6278 14.6588L11.3605 14.7707L11.3247 15.0583L11.021 17.5H6.97898L6.67528 15.0583ZM9.04478 12.65C10.0438 12.65 10.9101 12.2892 11.6156 11.5802L5.91045 9H5.41045C5.41045 9.00011 5.41045 9.00023 5.41045 9.00034C5.41053 9.99993 5.76315 10.8685 6.46004 11.5779C7.16054 12.2909 8.03277 12.65 9.04478 12.65Z" fill="black" stroke="white"/>
</svg>
